<?xml version="1.0" encoding="utf-8"?>
<!-- Generator: Adobe Illustrator 21.0.0, SVG Export Plug-In . SVG Version: 6.00 Build 0)  -->
<svg version="1.1" id="Layer_1" xmlns="http://www.w3.org/2000/svg" xmlns:xlink="http://www.w3.org/1999/xlink" x="0px" y="0px"
	 viewBox="0 0 120 50" style="enable-background:new 0 0 120 50;" xml:space="preserve">
<style type="text/css">
	.st0{fill:#00ACCD;}
	.st1{fill:#949698;}
</style>
<g>
	<g id="XMLID_1608_">
		<g>
			<polygon id="XMLID_1609_" class="st0" points="0.1,27 18.5,45.6 18.4,40.6 9.6,31.8 7,29.2 4.9,27 18.4,13.5 20.6,15.6 9.6,26.7 
				9.6,31.8 25.5,15.8 18.4,8.6 			"/>
		</g>
	</g>
	<g id="XMLID_1603_">
		<g>
			<polygon id="XMLID_1604_" class="st1" points="36.5,26.9 22.3,41.2 12.7,31.6 26.6,17.7 27,21.8 17.2,31.6 22.2,36.7 32,26.9 
				30.6,25.4 23.3,32.7 23.4,28.1 30.6,20.9 			"/>
		</g>
	</g>
</g>
<path id="XMLID_1588_" class="st0" d="M45.6,28.1h-1.8v-9.7h5c1.8,0,2.6,0.7,2.6,2v2.3c0,1.4-0.9,2-2.6,2h-3.2V28.1z M45.6,23.2h3
	c0.7,0,1.1-0.3,1.1-0.8v-1.6c0-0.6-0.3-0.8-1.1-0.8h-3V23.2z M54.4,28.1v-9.7h1.8v9.7H54.4z M59.3,20.4c0-1.3,0.8-1.9,2.6-1.9h3.3
	c1.8,0,2.5,0.6,2.5,1.9v5.8c0,1.3-0.7,1.9-2.5,1.9h-3.3c-1.8,0-2.6-0.6-2.6-1.9V20.4z M61.1,20.8v4.9c0,0.6,0.3,0.8,1.1,0.8h2.6
	c0.8,0,1.1-0.3,1.1-0.8v-4.9c0-0.6-0.3-0.8-1.1-0.8h-2.6C61.5,20,61.1,20.2,61.1,20.8z M70.8,28.1v-9.7h1.8l4.2,5.8
	c0.2,0.3,0.3,0.6,0.5,0.9v-6.7H79v9.7h-1.8l-4-5.5c-0.3-0.4-0.5-0.8-0.6-1.2v6.7H70.8z M84,23.3h4.3L88,24.8H84v1.7h5.2L89,28.1
	h-6.8v-9.7h7L89,20h-5V23.3z M93.6,23.3h4.3l-0.2,1.6h-4.1v1.7h5.3l-0.2,1.6h-6.8v-9.7h7L98.5,20h-5V23.3z M101.3,18.4h5.1
	c1.7,0,2.5,0.6,2.5,1.8v2.7c0,1.1-0.7,1.7-2.1,1.8l2.8,3.3h-2.1l-2.8-3.3h-1.7v3.3h-1.8V18.4z M103.1,23.2h2.9
	c0.8,0,1.1-0.2,1.1-0.8v-1.6c0-0.6-0.4-0.8-1.1-0.8h-2.9V23.2z M113.8,23.5c-1.6-0.6-2.1-0.9-2.1-2.1v-1.2c0-1.2,0.7-1.7,2.3-1.7
	h2.8c1.6,0,2.3,0.6,2.3,1.7v1.1h-1.8v-0.6c0-0.5-0.3-0.7-1-0.7h-1.9c-0.7,0-1,0.2-1,0.7v0.4c0,0.5,0.2,0.6,0.8,0.8l2.9,1
	c1.5,0.5,2.1,0.8,2.1,1.8v1.7c0,1.1-0.7,1.7-2.3,1.7h-3.2c-1.6,0-2.3-0.6-2.3-1.7v-1.3h1.8v0.7c0,0.5,0.3,0.7,1,0.7h2.2
	c0.6,0,1-0.2,1-0.7v-0.5c0-0.4-0.2-0.6-0.8-0.8L113.8,23.5z"/>
<path id="XMLID_683_" class="st1" d="M52.3,32.5h2.2v1.8c0,0.7-0.4,1-1.4,1h-1.9c-0.9,0-1.4-0.3-1.4-1v-3.3c0-0.7,0.4-1,1.4-1h2
	c0.9,0,1.4,0.3,1.4,1v0.6h-1v-0.3c0-0.3-0.2-0.4-0.6-0.4h-1.4c-0.4,0-0.6,0.1-0.6,0.5V34c0,0.3,0.2,0.4,0.6,0.4h1.3
	c0.5,0,0.6-0.1,0.6-0.4v-0.7h-1.3L52.3,32.5z M65.1,30.1h3c1,0,1.4,0.3,1.4,1v1.5c0,0.6-0.4,1-1.2,1l1.7,1.8h-1.2l-1.6-1.8h-1v1.8
	h-1V30.1z M66.1,32.7h1.7c0.4,0,0.7-0.1,0.7-0.5v-0.8c0-0.3-0.2-0.5-0.7-0.5h-1.7V32.7z M80.1,31.1c0-0.7,0.4-1.1,1.5-1.1h1.9
	c1,0,1.5,0.3,1.5,1.1v3.2c0,0.7-0.4,1.1-1.5,1.1h-1.9c-1,0-1.5-0.3-1.5-1.1V31.1z M81.1,31.4V34c0,0.3,0.2,0.4,0.6,0.4h1.5
	c0.4,0,0.6-0.1,0.6-0.4v-2.7c0-0.3-0.2-0.4-0.6-0.4h-1.5C81.3,30.9,81.1,31,81.1,31.4z M99.1,34v-3.9h1v4.3c0,0.7-0.5,1-1.5,1H97
	c-1,0-1.5-0.3-1.5-1v-4.3h1V34c0,0.3,0.2,0.5,0.7,0.5h1.2C98.9,34.5,99.1,34.3,99.1,34z M111.8,35.3h-1v-5.3h2.9
	c1,0,1.5,0.4,1.5,1.1v1.2c0,0.7-0.5,1.1-1.5,1.1h-1.9V35.3z M111.8,32.7h1.7c0.4,0,0.6-0.1,0.6-0.4v-0.9c0-0.3-0.2-0.4-0.6-0.4h-1.7
	V32.7z"/>
</svg>
